<?xml version="1.0" encoding="utf-8"?>
<!-- Generator: Adobe Illustrator 24.3.0, SVG Export Plug-In . SVG Version: 6.00 Build 0)  -->
<svg version="1.1" id="Layer_1" xmlns="http://www.w3.org/2000/svg" xmlns:xlink="http://www.w3.org/1999/xlink" x="0px" y="0px"
	 viewBox="0 0 100 100" style="enable-background:new 0 0 100 100;" xml:space="preserve">
<style type="text/css">
	.st0{fill:#FFFFFF;}
	.st1{fill:#F79120;}
	.st2{fill-rule:evenodd;clip-rule:evenodd;fill:#FFFFFF;}
</style>
<path class="st0" d="M29.94,41.45c0-1.88,7.14-2.94,10.46-3.19l0.32,0.18c-1.28,0.23-6.4,1.13-6.4,2.31c0,1.28,7.86,2.12,12.42,2.12
	c7.75,0,13.01-1.17,14.43-1.56l1.98,1.15c-1.36,0.66-7.18,2.41-16.41,2.41C36.49,44.88,29.94,42.87,29.94,41.45 M45.57,67.87
	c-4.06,0.04-9.01-0.3-13.18-1L32,67.09c4.15,1.22,9.93,1.95,16.28,1.9c12.48-0.11,22.59-3.2,22.79-6.93l-0.14-0.08
	C70.1,62.99,64.7,67.7,45.57,67.87 M46.63,65.47c10.21-0.09,21.63-2.09,21.6-5.45c-0.01-0.61-0.4-1.03-0.75-1.28l-0.17,0.1
	c-0.95,2.6-8.92,4.52-20.71,4.63c-7.6,0.07-18.14-1.76-18.16-3.86c-0.02-2.11,4.99-3.27,4.99-3.27l-0.35-0.2
	c-3.36,0.46-9.54,2.07-9.52,4.39C23.6,63.88,37.82,65.54,46.63,65.47 M69.64,42.35c-0.21,3.94-3.85,6.39-7.48,8.47l0.33,0.19
	c3.88-1.09,10.81-4.27,10.23-9.16c-0.29-2.44-2.51-4.18-5.42-4.18c-0.9,0-1.71,0.16-2.36,0.36l0,0.01l-0.14,0.35
	C67.4,37.87,69.77,39.77,69.64,42.35 M39.64,54.06c-1.18,0.24-3.77,0.83-3.77,2.08c0,1.74,5.53,3.07,10.86,3.07
	c7.34,0,10.35-1.89,10.48-1.99l-3.05-1.77c-1.3,0.31-3.48,0.8-7.42,0.8c-4.4,0-7.26-0.75-7.26-1.58c0-0.18,0.11-0.38,0.31-0.53
	L39.64,54.06z M57.67,48.19c-1.69,0.48-5.49,1.26-10.93,1.26c-5.34,0-9.7-0.91-9.71-1.99c-0.01-0.72,0.86-1.03,0.86-1.03l-0.15-0.09
	c-2.55,0.45-4.93,1.15-4.91,2.19c0.02,1.9,7.27,3.32,13.91,3.32c5.64,0,11.06-0.95,13.5-2.19L57.67,48.19z"/>
<path class="st1" d="M56.22,5.89c0,10.46-14.33,14.46-14.33,21.89c0,5.22,3.46,8.49,5.38,10.56l-0.16,0.09
	c-2.41-1.51-8.78-5.31-8.78-11.59c0-8.81,16.46-13.02,16.46-23.03c0-1.23-0.18-2.17-0.31-2.68l0.17-0.1
	C55.17,1.69,56.22,3.33,56.22,5.89 M60.93,15.15l-0.17-0.1c-3.12,1.04-12.72,4.83-12.72,11.9c0,4,3.9,6.21,3.9,9.95
	c0,1.34-0.75,2.59-1.37,3.34l0.31,0.18c1.63-1.06,4.5-3.34,4.5-6.29c0-2.5-3.46-5.5-3.46-8.71C51.92,20.36,58.6,16.39,60.93,15.15"
	/>
<path class="st2" d="M77.56,81.56h0.52v-2.53H77.3l-0.63,1.73l-0.69-1.73h-0.75v2.53h0.49v-1.93h0.03l0.72,1.93h0.37l0.72-1.93
	V81.56 M73.39,81.56h0.55v-2.1h0.72v-0.43h-2.01v0.43h0.75V81.56z M28.15,92.09c0,3.32-1.12,5.83-3.37,7.5l-1.62-1.38
	c0.71-0.84,1.19-1.84,1.44-3c0.16-0.8,0.25-1.9,0.25-3.3V73.58h3.3V92.09z M42.99,94.23h-2.45l-0.24-1.65
	c-1.51,1.31-3.08,1.96-4.71,1.96c-3.06,0-4.59-1.41-4.59-4.22c0-1.61,0.62-2.86,1.87-3.76c1.35-0.96,3.32-1.44,5.91-1.44h1.1v-1.38
	c0-1.82-1.05-2.72-3.15-2.72c-1.37,0-2.86,0.3-4.47,0.89l-0.46-1.93c1.9-0.84,3.82-1.26,5.78-1.26c3.61,0,5.42,1.54,5.42,4.62V94.23
	z M39.87,90.72V87.1h-1.32c-2.96,0-4.44,0.92-4.44,2.75c0,1.59,0.79,2.39,2.36,2.39C37.55,92.24,38.68,91.74,39.87,90.72 M58.29,79
	c-1,5.63-2.57,10.71-4.71,15.24h-3.88L45.01,79h3.4l2.91,9.36l0.64,2.82c1.51-4.16,2.52-8.22,3.03-12.18H58.29z M71.2,94.23h-2.45
	l-0.24-1.65c-1.51,1.31-3.08,1.96-4.71,1.96c-3.06,0-4.59-1.41-4.59-4.22c0-1.61,0.62-2.86,1.86-3.76c1.35-0.96,3.32-1.44,5.91-1.44
	h1.1v-1.38c0-1.82-1.05-2.72-3.15-2.72c-1.37,0-2.86,0.3-4.47,0.89L60,79.97c1.9-0.84,3.82-1.26,5.78-1.26
	c3.61,0,5.42,1.54,5.42,4.62V94.23z M68.08,90.72V87.1h-1.32c-2.96,0-4.44,0.92-4.44,2.75c0,1.59,0.78,2.39,2.36,2.39
	C65.76,92.24,66.9,91.74,68.08,90.72"/>
</svg>
